<svg width="34" height="34" viewBox="0 0 34 34" fill="none" xmlns="http://www.w3.org/2000/svg">
<path d="M14.0289 10.7981L14.5654 9.95422L14.0289 10.7981ZM21.8412 21.757L22.0268 22.7396L21.8412 21.757ZM12.7573 21.2427C15.1005 23.5858 18.8995 23.5858 21.2426 21.2427L22.6568 22.6569C19.5326 25.7811 14.4673 25.7811 11.3431 22.6569L12.7573 21.2427ZM12.7573 12.7574C10.4142 15.1005 10.4142 18.8995 12.7573 21.2427L11.3431 22.6569C8.21894 19.5327 8.21894 14.4674 11.3431 11.3432L12.7573 12.7574ZM13.1143 12.4277C12.9921 12.5318 12.8731 12.6417 12.7573 12.7574L11.3431 11.3432C11.4965 11.1898 11.6546 11.0439 11.8172 10.9054L13.1143 12.4277ZM14.7496 13.2873C14.1979 15.3015 14.7141 17.5425 16.2933 19.1217L14.879 20.5359C12.7714 18.4282 12.0869 15.4377 12.8207 12.7589L14.7496 13.2873ZM16.2933 19.1217C17.7501 20.5785 19.7694 21.1306 21.6556 20.7744L22.0268 22.7396C19.5187 23.2133 16.823 22.4799 14.879 20.5359L16.2933 19.1217ZM11.8172 10.9054C12.2063 10.5738 12.589 10.244 12.9177 10.0408C13.2214 9.85312 13.8849 9.52166 14.5654 9.95422L13.4924 11.6421C13.6439 11.7383 13.8156 11.7574 13.9409 11.7357C14.0275 11.7207 14.0469 11.694 13.9691 11.7421C13.899 11.7855 13.7973 11.8593 13.6463 11.9812C13.4975 12.1013 13.326 12.2473 13.1143 12.4277L11.8172 10.9054ZM12.8207 12.7589C13.0136 12.0546 13.1309 11.6196 13.1734 11.3319C13.1947 11.1877 13.1817 11.1711 13.1908 11.2204C13.2057 11.3011 13.2745 11.5035 13.4924 11.6421L14.5654 9.95422C14.9391 10.1918 15.1016 10.5529 15.1578 10.8583C15.2082 11.1322 15.1842 11.4061 15.1519 11.6244C15.0873 12.0618 14.9269 12.6403 14.7496 13.2873L12.8207 12.7589ZM21.2426 21.2427C20.9243 21.561 20.9284 22.011 21.0986 22.31C21.2635 22.5997 21.6189 22.8167 22.0268 22.7396L21.6556 20.7744C22.1754 20.6762 22.6253 20.9493 22.8367 21.3205C23.0533 21.7011 23.0557 22.258 22.6568 22.6569L21.2426 21.2427Z" fill="#CCD2E3"/>
<path d="M22.9397 13.6059L22.9397 13.6059C22.653 13.4625 22.5096 13.3908 22.4268 13.3798C22.1002 13.3362 21.8214 13.6149 21.8651 13.9416C21.8761 14.0243 21.9478 14.1677 22.0912 14.4544L22.0912 14.4544C22.2068 14.6857 22.2646 14.8014 22.3057 14.9173C22.4591 15.3497 22.4591 15.8218 22.3057 16.2543C22.2646 16.3702 22.2068 16.4859 22.0912 16.7172L22.0912 16.7172C21.9478 17.0039 21.8761 17.1472 21.8651 17.23C21.8214 17.5566 22.1002 17.8354 22.4268 17.7918C22.5096 17.7807 22.653 17.709 22.9397 17.5657L22.9397 17.5657C23.171 17.45 23.2866 17.3922 23.4025 17.3511C23.835 17.1977 24.3071 17.1977 24.7396 17.3511C24.8555 17.3922 24.9711 17.45 25.2024 17.5657C25.4891 17.709 25.6325 17.7807 25.7153 17.7918C26.0419 17.8354 26.3207 17.5566 26.277 17.23C26.266 17.1472 26.1943 17.0039 26.051 16.7172C25.9353 16.4859 25.8775 16.3702 25.8364 16.2543C25.683 15.8218 25.683 15.3497 25.8364 14.9173C25.8775 14.8014 25.9353 14.6857 26.0509 14.4544C26.1943 14.1677 26.266 14.0243 26.277 13.9416C26.3207 13.6149 26.0419 13.3362 25.7153 13.3798C25.6325 13.3908 25.4891 13.4625 25.2024 13.6059C24.9711 13.7215 24.8555 13.7794 24.7396 13.8205C24.3071 13.9738 23.835 13.9738 23.4025 13.8205C23.2866 13.7794 23.171 13.7215 22.9397 13.6059Z" stroke="#CCD2E3" stroke-width="2"/>
</svg>
