<svg width="40" height="40" viewBox="0 0 40 40" fill="none" xmlns="http://www.w3.org/2000/svg">
<path fill-rule="evenodd" clip-rule="evenodd" d="M20 8.33334C20.9205 8.33334 21.6667 9.07954 21.6667 10L21.6667 30C21.6667 30.9205 20.9205 31.6667 20 31.6667C19.0795 31.6667 18.3333 30.9205 18.3333 30L18.3333 10C18.3333 9.07954 19.0795 8.33334 20 8.33334Z" fill="white"/>
<path fill-rule="evenodd" clip-rule="evenodd" d="M31.6667 20C31.6667 20.9205 30.9205 21.6667 30 21.6667L10 21.6667C9.07952 21.6667 8.33333 20.9205 8.33333 20C8.33333 19.0795 9.07952 18.3333 10 18.3333L30 18.3333C30.9205 18.3333 31.6667 19.0795 31.6667 20Z" fill="white"/>
</svg>
