<svg width="20" height="20" viewBox="0 0 20 20" fill="none" xmlns="http://www.w3.org/2000/svg">
<path fill-rule="evenodd" clip-rule="evenodd" d="M10 5.41666C7.00846 5.41666 4.58333 7.84179 4.58333 10.8333C4.58333 13.8249 7.00846 16.25 10 16.25C12.9915 16.25 15.4167 13.8249 15.4167 10.8333C15.4167 7.84179 12.9915 5.41666 10 5.41666ZM3.75 10.8333C3.75 7.38155 6.54822 4.58333 10 4.58333C13.4518 4.58333 16.25 7.38155 16.25 10.8333C16.25 14.2851 13.4518 17.0833 10 17.0833C6.54822 17.0833 3.75 14.2851 3.75 10.8333Z" fill="#808080"/>
<path fill-rule="evenodd" clip-rule="evenodd" d="M4.4613 3.87204C4.62402 4.03476 4.62402 4.29858 4.4613 4.46129L2.79463 6.12796C2.63191 6.29068 2.36809 6.29068 2.20537 6.12796C2.04266 5.96524 2.04266 5.70142 2.20537 5.53871L3.87204 3.87204C4.03476 3.70932 4.29858 3.70932 4.4613 3.87204Z" fill="#808080"/>
<path fill-rule="evenodd" clip-rule="evenodd" d="M15.5387 3.87204C15.376 4.03476 15.376 4.29858 15.5387 4.46129L17.2054 6.12796C17.3681 6.29068 17.6319 6.29068 17.7946 6.12796C17.9573 5.96524 17.9573 5.70142 17.7946 5.53871L16.128 3.87204C15.9652 3.70932 15.7014 3.70932 15.5387 3.87204Z" fill="#808080"/>
<path fill-rule="evenodd" clip-rule="evenodd" d="M11.927 8.42463C12.1066 8.56839 12.1358 8.83059 11.992 9.01028L10.4447 10.9445C10.2422 11.1976 9.8797 11.2539 9.60995 11.0741L7.26888 9.51335C7.07741 9.3857 7.02567 9.12701 7.15331 8.93554C7.28096 8.74407 7.53966 8.69233 7.73113 8.81997L9.91328 10.2747L11.3413 8.48971C11.4851 8.31001 11.7473 8.28088 11.927 8.42463Z" fill="#808080"/>
</svg>
