<svg width="306" height="169" viewBox="0 0 306 169" fill="none" xmlns="http://www.w3.org/2000/svg">
<g clip-path="url(#clip0)">
<path d="M157.459 168.135C152.621 168.847 147.725 169.083 142.841 168.841C131.065 168.247 119.484 164.827 109.587 158.397C105.199 155.546 101.012 152.043 98.741 147.338C95.6581 140.948 96.7363 132.859 101.139 127.293C102.745 125.285 104.72 123.603 106.958 122.336C107.29 122.148 107.629 121.968 107.971 121.796C111.701 119.923 115.891 119.157 120.043 119.589C127.103 120.359 133.618 124.665 137.382 130.68C140.736 136.045 141.904 142.373 142.593 148.717C142.722 149.912 142.834 151.111 142.942 152.302C142.342 155.754 141.399 159.138 140.126 162.404C140.062 162.563 140.008 162.727 139.968 162.893C140.689 164.456 141.375 166.033 142.026 167.624C142.638 167.956 143.324 168.129 144.02 168.128H157.43L157.459 168.135Z" fill="#F2F2F2"/>
<path d="M141.749 168.441C141.66 168.481 141.564 168.502 141.467 168.504C141.369 168.507 141.273 168.49 141.182 168.454C141.091 168.418 141.009 168.365 140.939 168.298C140.869 168.23 140.813 168.149 140.775 168.059C140.718 167.923 140.664 167.786 140.606 167.649C140.087 166.389 139.542 165.141 138.973 163.905C131.679 147.955 120.8 133.899 107.182 122.829C107.104 122.774 107.042 122.7 107.002 122.613C106.963 122.526 106.948 122.43 106.958 122.336C106.978 122.227 107.022 122.125 107.087 122.035C107.152 121.946 107.237 121.873 107.334 121.821C107.432 121.769 107.539 121.74 107.65 121.736C107.76 121.731 107.87 121.752 107.971 121.796C108.026 121.82 108.077 121.852 108.123 121.889C113.949 126.628 119.295 131.927 124.081 137.711C128.869 143.49 133.084 149.718 136.668 156.309C137.646 158.109 138.573 159.934 139.452 161.785C139.625 162.152 139.798 162.523 139.968 162.893C140.689 164.456 141.375 166.033 142.026 167.624C142.037 167.649 142.048 167.678 142.059 167.703C142.092 167.771 142.11 167.846 142.112 167.921C142.115 167.997 142.1 168.072 142.071 168.142C142.042 168.212 141.998 168.275 141.942 168.326C141.887 168.378 141.821 168.417 141.749 168.441Z" fill="white"/>
<path d="M93.9275 120.96C101.694 120.96 107.989 114.675 107.989 106.92C107.989 99.1663 101.694 92.8804 93.9275 92.8804C86.1613 92.8804 79.8655 99.1663 79.8655 106.92C79.8655 114.675 86.1613 120.96 93.9275 120.96Z" fill="#FFA14E"/>
<path d="M92.5336 112.276C92.2172 112.277 91.9092 112.175 91.6561 111.985L91.6404 111.974L88.3358 109.447C88.1826 109.33 88.0541 109.184 87.9575 109.018C87.8609 108.851 87.7981 108.667 87.7727 108.476C87.7474 108.285 87.7599 108.091 87.8097 107.905C87.8595 107.719 87.9454 107.545 88.0627 107.392C88.18 107.239 88.3264 107.111 88.4933 107.014C88.6603 106.918 88.8446 106.855 89.0358 106.83C89.227 106.805 89.4213 106.817 89.6077 106.867C89.794 106.917 89.9686 107.003 90.1217 107.12L92.2622 108.759L97.3205 102.172C97.4378 102.02 97.5841 101.891 97.7511 101.795C97.918 101.699 98.1023 101.636 98.2934 101.611C98.4846 101.586 98.6788 101.598 98.8651 101.648C99.0513 101.698 99.2259 101.784 99.3789 101.901L99.3475 101.944L99.3798 101.902C99.6884 102.138 99.8903 102.488 99.9413 102.873C99.9922 103.258 99.888 103.648 99.6515 103.957L93.7017 111.704C93.5641 111.883 93.3871 112.027 93.1845 112.126C92.982 112.226 92.7592 112.277 92.5336 112.276Z" fill="white"/>
<path d="M305.571 169H0.429294C0.315648 169 0.206772 168.954 0.126528 168.874C0.0462846 168.794 0.0012207 168.685 0.0012207 168.571C0.0012207 168.458 0.0462846 168.349 0.126528 168.269C0.206772 168.188 0.315648 168.143 0.429294 168.143H305.571C305.684 168.143 305.793 168.188 305.873 168.269C305.954 168.349 305.999 168.458 305.999 168.571C305.999 168.685 305.954 168.794 305.873 168.874C305.793 168.954 305.684 169 305.571 169Z" fill="#3F3D56"/>
<path d="M59.6895 48.9403C65.4524 48.9403 70.1242 44.2758 70.1242 38.5219C70.1242 32.7679 65.4524 28.1034 59.6895 28.1034C53.9266 28.1034 49.2549 32.7679 49.2549 38.5219C49.2549 44.2758 53.9266 48.9403 59.6895 48.9403Z" fill="#2F2E41"/>
<path d="M51.5447 32.9045C53.2309 31.2209 53.5726 28.8325 52.308 27.5699C51.0433 26.3072 48.6512 26.6484 46.965 28.3319C45.2788 30.0155 44.9371 32.4039 46.2017 33.6666C47.4664 34.9293 49.8585 34.5881 51.5447 32.9045Z" fill="#2F2E41"/>
<path d="M70.5652 29.596C71.2678 27.9539 70.0596 25.8644 67.8666 24.9291C65.6736 23.9938 63.3264 24.5669 62.6238 26.209C61.9213 27.8512 63.1294 29.9406 65.3224 30.8759C67.5153 31.8112 69.8626 31.2382 70.5652 29.596Z" fill="#2F2E41"/>
<path d="M88.7457 98.6717C89.0093 98.1714 89.1599 97.6194 89.1868 97.0546C89.2136 96.4899 89.1162 95.9261 88.9012 95.403C88.6863 94.88 88.3591 94.4103 87.9427 94.0271C87.5263 93.644 87.0308 93.3567 86.4911 93.1854L71.4138 61.34L64.517 66.1687L81.5062 95.9533C81.2781 96.8776 81.3975 97.8533 81.8417 98.6955C82.286 99.5377 83.0242 100.188 83.9166 100.523C84.809 100.858 85.7934 100.855 86.6835 100.514C87.5735 100.172 88.3072 99.517 88.7457 98.6717V98.6717Z" fill="#FFB8B8"/>
<path d="M74.8714 66.6529L66.8639 70.228C66.636 70.3298 66.3889 70.3813 66.1393 70.379C65.8898 70.3768 65.6436 70.3209 65.4176 70.2151C65.1917 70.1093 64.9912 69.9561 64.8298 69.766C64.6685 69.5759 64.5501 69.3533 64.4827 69.1134L62.1213 60.7062C61.6067 59.5394 61.5765 58.2164 62.0373 57.0274C62.4982 55.8384 63.4124 54.8803 64.5796 54.3633C65.7468 53.8463 67.0717 53.8125 68.2639 54.2693C69.456 54.7261 70.4181 55.6363 70.9392 56.8002L75.627 64.1378C75.7611 64.3479 75.8483 64.5845 75.8827 64.8313C75.917 65.0781 75.8977 65.3294 75.826 65.5681C75.7543 65.8068 75.6319 66.0272 75.4672 66.2144C75.3025 66.4016 75.0993 66.5512 74.8714 66.6529Z" fill="#CCCCCC"/>
<path d="M37.8895 101.829C38.4411 101.701 38.9579 101.454 39.4035 101.105C39.8491 100.756 40.2126 100.314 40.4685 99.8096C40.7245 99.3052 40.8665 98.751 40.8847 98.1859C40.9028 97.6208 40.7967 97.0586 40.5737 96.5389L54.8528 64.3288L46.6844 62.2747L35.2171 94.582C34.3675 95.0139 33.7061 95.742 33.3582 96.6282C33.0103 97.5145 33 98.4973 33.3294 99.3906C33.6589 100.284 34.305 101.025 35.1455 101.475C35.9859 101.924 36.9622 102.05 37.8895 101.829H37.8895Z" fill="#FFB8B8"/>
<path d="M33.997 160.212L38.1507 161.722L45.9608 146.445L39.8302 144.216L33.997 160.212Z" fill="#FFB8B8"/>
<path d="M44.757 168.486L31.7026 163.74L33.539 158.704L41.5497 161.616C42.8873 162.102 43.9767 163.099 44.5782 164.388C45.1797 165.676 45.244 167.15 44.757 168.486Z" fill="#2F2E41"/>
<path d="M43.8219 151.421C43.567 151.421 43.3153 151.364 43.0849 151.255L38.3113 148.998C37.92 148.814 37.6116 148.491 37.4469 148.092C37.2821 147.693 37.273 147.247 37.4213 146.841L50.8932 109.593C51.0048 109.284 51.2017 109.014 51.4611 108.813C51.7205 108.611 52.0318 108.488 52.3587 108.456C52.6857 108.424 53.0149 108.486 53.3083 108.633C53.6016 108.781 53.847 109.009 54.016 109.29L61.1415 121.147C61.3001 121.411 61.3854 121.713 61.3887 122.021C61.392 122.329 61.3131 122.632 61.1603 122.9L45.3363 150.549C45.1829 150.814 44.9622 151.034 44.6963 151.188C44.4304 151.341 44.1288 151.421 43.8219 151.421Z" fill="#2F2E41"/>
<path d="M60.0204 49.851C64.9113 49.851 68.8762 45.8923 68.8762 41.009C68.8762 36.1257 64.9113 32.167 60.0204 32.167C55.1295 32.167 51.1647 36.1257 51.1647 41.009C51.1647 45.8923 55.1295 49.851 60.0204 49.851Z" fill="#FFB8B8"/>
<path d="M72.5489 81.2102L56.8688 76.9047L48.5292 60.2515C48.1285 59.4515 47.9393 58.5625 47.9796 57.6689C48.0199 56.7754 48.2883 55.9069 48.7592 55.1461C49.2302 54.3852 49.8882 53.7572 50.6707 53.3216C51.4531 52.886 52.3341 52.6574 53.23 52.6574H65.7052C67.0001 52.6566 68.2496 53.1338 69.2135 53.9971C72.56 56.9904 79.5908 65.6197 72.6168 81.0596L72.5489 81.2102Z" fill="#CCCCCC"/>
<path d="M52.9198 70.0894L44.9754 66.3765C44.7493 66.2709 44.5488 66.1178 44.3873 65.9278C44.2258 65.7378 44.1073 65.5153 44.0397 65.2754C43.9722 65.0355 43.9572 64.7839 43.9958 64.5377C44.0344 64.2915 44.1257 64.0565 44.2635 63.8487L49.0916 56.5685C49.6396 55.417 50.6225 54.5294 51.8249 54.1003C53.0273 53.6712 54.351 53.7357 55.5059 54.2796C56.6607 54.8234 57.5525 55.8023 57.9856 57.0016C58.4188 58.2009 58.358 59.5228 57.8165 60.6774L55.3199 69.016C55.2484 69.2548 55.1261 69.4753 54.9615 69.6626C54.7969 69.8499 54.5938 69.9996 54.366 70.1014C54.1383 70.2033 53.8912 70.255 53.6416 70.2529C53.392 70.2508 53.1458 70.1951 52.9198 70.0894Z" fill="#CCCCCC"/>
<path d="M62.5315 164.387H66.9517L69.0548 147.363L62.5305 147.364L62.5315 164.387Z" fill="#FFB8B8"/>
<path d="M75.477 168.485L61.5843 168.486L61.5841 163.126L70.1091 163.126C71.5327 163.126 72.898 163.69 73.9047 164.695C74.9114 165.7 75.477 167.064 75.477 168.485Z" fill="#2F2E41"/>
<path d="M64.2005 157.9C63.803 157.901 63.4175 157.764 63.109 157.514C62.8004 157.264 62.5877 156.915 62.5067 156.527C61.2361 150.549 54.6369 119.932 49.4864 104.161C44.2459 88.116 53.1707 80.8075 55.013 79.5055C55.2092 79.3671 55.3651 79.1792 55.4647 78.9609L56.8032 76.0211C56.942 75.7176 57.1652 75.4604 57.4463 75.28C57.7274 75.0995 58.0545 75.0036 58.3886 75.0036H58.3995C68.4334 75.0634 71.8066 78.2215 72.7911 79.5766C72.9363 79.7784 73.0358 80.0094 73.0827 80.2535C73.1297 80.4975 73.1229 80.7488 73.0628 80.99L66.7142 107.142C66.6748 107.304 66.6659 107.472 66.6879 107.638L73.0043 155.122C73.0346 155.35 73.0192 155.582 72.9588 155.804C72.8984 156.027 72.7943 156.235 72.6526 156.416C72.5108 156.598 72.3343 156.749 72.1333 156.862C71.9323 156.975 71.7108 157.047 71.4817 157.073L64.4044 157.888C64.3367 157.896 64.2686 157.9 64.2005 157.9Z" fill="#2F2E41"/>
<path d="M50.7151 35.4474C52.7388 36.84 55.1407 37.5811 57.5985 37.5713C56.7217 38.1783 55.7237 38.5883 54.673 38.773C57.9408 39.4729 61.318 39.4918 64.5935 38.8287C65.3216 38.7121 66.0241 38.4712 66.6702 38.1165C66.9922 37.937 67.2728 37.6918 67.4936 37.3969C67.7145 37.102 67.8707 36.7639 67.9521 36.4048C68.1698 35.1633 67.2009 34.0354 66.194 33.2753C64.6524 32.1292 62.875 31.3396 60.9902 30.9635C59.1055 30.5875 57.1606 30.6344 55.2962 31.101C54.0789 31.4152 52.8594 31.946 52.0686 32.9221C51.2779 33.8982 51.0437 35.4031 51.7971 36.4082L50.7151 35.4474Z" fill="#2F2E41"/>
<path d="M213.273 73.8003C215.862 73.8003 217.961 71.705 217.961 69.1203C217.961 66.5356 215.862 64.4402 213.273 64.4402C210.685 64.4402 208.586 66.5356 208.586 69.1203C208.586 71.705 210.685 73.8003 213.273 73.8003Z" fill="#FFA14E"/>
<path d="M212.809 70.9056C212.703 70.9058 212.601 70.8717 212.516 70.8086L212.511 70.8047L211.41 69.9626C211.358 69.9236 211.315 69.875 211.283 69.8194C211.251 69.7638 211.23 69.7024 211.221 69.6387C211.213 69.575 211.217 69.5102 211.233 69.4481C211.25 69.386 211.279 69.3278 211.318 69.2768C211.357 69.2258 211.406 69.183 211.462 69.1508C211.517 69.1187 211.579 69.0978 211.643 69.0895C211.706 69.0811 211.771 69.0854 211.833 69.1021C211.896 69.1188 211.954 69.1476 212.005 69.1869L212.718 69.7331L214.404 67.5376C214.444 67.4867 214.492 67.4439 214.548 67.4118C214.604 67.3797 214.665 67.3589 214.729 67.3505C214.792 67.3421 214.857 67.3463 214.919 67.3629C214.981 67.3795 215.04 67.4081 215.091 67.4472L215.08 67.4614L215.091 67.4474C215.194 67.5263 215.261 67.6428 215.278 67.7712C215.295 67.8996 215.26 68.0295 215.181 68.1324L213.198 70.7149C213.152 70.7744 213.093 70.8226 213.026 70.8556C212.958 70.8887 212.884 70.9058 212.809 70.9056Z" fill="white"/>
<path d="M213.273 87.4803C215.862 87.4803 217.961 85.385 217.961 82.8003C217.961 80.2156 215.862 78.1203 213.273 78.1203C210.685 78.1203 208.586 80.2156 208.586 82.8003C208.586 85.385 210.685 87.4803 213.273 87.4803Z" fill="#FFA14E"/>
<path d="M212.809 84.5856C212.703 84.5858 212.601 84.5518 212.516 84.4886L212.511 84.4847L211.41 83.6426C211.358 83.6037 211.315 83.555 211.283 83.4994C211.251 83.4438 211.23 83.3824 211.221 83.3187C211.213 83.255 211.217 83.1903 211.233 83.1282C211.25 83.0661 211.279 83.0078 211.318 82.9568C211.357 82.9058 211.406 82.863 211.462 82.8309C211.517 82.7987 211.579 82.7779 211.643 82.7695C211.706 82.7612 211.771 82.7655 211.833 82.7822C211.896 82.7989 211.954 82.8277 212.005 82.8669L212.718 83.4131L214.404 81.2176C214.444 81.1667 214.492 81.124 214.548 81.0919C214.604 81.0598 214.665 81.0389 214.729 81.0305C214.792 81.0221 214.857 81.0263 214.919 81.0429C214.981 81.0595 215.04 81.0881 215.091 81.1272L215.08 81.1414L215.091 81.1274C215.194 81.2063 215.261 81.3228 215.278 81.4512C215.295 81.5797 215.26 81.7096 215.181 81.8125L213.198 84.3949C213.152 84.4544 213.093 84.5026 213.026 84.5357C212.958 84.5687 212.884 84.5858 212.809 84.5856Z" fill="white"/>
<path d="M215.797 103.32C218.386 103.32 220.485 101.225 220.485 98.6404C220.485 96.0557 218.386 93.9604 215.797 93.9604C213.209 93.9604 211.11 96.0557 211.11 98.6404C211.11 101.225 213.209 103.32 215.797 103.32Z" fill="#FFA14E"/>
<path d="M215.333 100.426C215.227 100.426 215.125 100.392 215.04 100.329L215.035 100.325L213.934 99.4827C213.882 99.4437 213.839 99.3951 213.807 99.3395C213.775 99.2839 213.754 99.2225 213.745 99.1588C213.737 99.0951 213.741 99.0304 213.757 98.9682C213.774 98.9061 213.803 98.8479 213.842 98.7969C213.881 98.7459 213.93 98.7031 213.985 98.6709C214.041 98.6388 214.103 98.618 214.167 98.6096C214.23 98.6012 214.295 98.6055 214.357 98.6222C214.42 98.639 214.478 98.6677 214.529 98.707L215.242 99.2532L216.928 97.0577C216.968 97.0068 217.016 96.964 217.072 96.9319C217.128 96.8998 217.189 96.879 217.253 96.8706C217.316 96.8622 217.381 96.8664 217.443 96.883C217.505 96.8996 217.564 96.9282 217.615 96.9673L217.604 96.9815L217.615 96.9675C217.718 97.0464 217.785 97.1629 217.802 97.2913C217.819 97.4197 217.784 97.5497 217.705 97.6525L215.722 100.235C215.676 100.295 215.617 100.343 215.55 100.376C215.482 100.409 215.408 100.426 215.333 100.426Z" fill="white"/>
<path d="M260.996 137.715C260.947 137.715 260.917 137.714 260.906 137.713L255.087 137.713V136.857H260.927C261.062 136.862 263.821 136.939 266.363 133.86C270.151 129.27 273.262 117.908 266.57 89.8446C257.571 52.109 265.076 18.7718 268.721 6.19032C268.9 5.56787 268.932 4.91224 268.815 4.27526C268.697 3.63828 268.432 3.03739 268.042 2.52007C267.651 2.00275 267.146 1.58316 266.565 1.29448C265.984 1.00579 265.344 0.855919 264.695 0.856688H177.788C177.127 0.857572 176.476 1.01399 175.887 1.31325C175.298 1.61252 174.788 2.04619 174.398 2.57907C172.855 4.69948 170.736 8.77296 169.41 16.1385L168.566 15.9871C169.92 8.46153 172.108 4.26819 173.704 2.07542C174.174 1.43333 174.788 0.910762 175.497 0.550152C176.207 0.189542 176.991 0.00105128 177.788 -1.29272e-05H264.695C265.477 -0.000764132 266.248 0.180015 266.948 0.528041C267.648 0.876068 268.257 1.38181 268.728 2.0053C269.198 2.6288 269.517 3.35296 269.659 4.12059C269.8 4.88822 269.762 5.67827 269.545 6.42834C265.919 18.9445 258.453 52.1088 267.405 89.6463C274.191 118.105 270.928 129.713 266.997 134.439C264.403 137.557 261.546 137.715 260.996 137.715Z" fill="#E6E6E6"/>
<path d="M245.337 153.349C245.288 153.349 245.258 153.348 245.247 153.348L239.428 153.348V152.491H245.268C245.404 152.496 248.162 152.574 250.704 149.494C254.492 144.905 257.603 133.543 250.911 105.479C241.912 67.7437 249.417 34.4065 253.062 21.825C253.241 21.2026 253.273 20.5469 253.156 19.91C253.038 19.273 252.773 18.6721 252.383 18.1548C251.992 17.6374 251.487 17.2179 250.906 16.9292C250.325 16.6405 249.685 16.4906 249.036 16.4914H162.129C161.468 16.4923 160.817 16.6487 160.228 16.9479C159.639 17.2472 159.129 17.6809 158.739 18.2138C157.196 20.3342 155.077 24.4077 153.751 31.7732L152.907 31.6218C154.261 24.0962 156.449 19.9029 158.045 17.7101C158.515 17.068 159.129 16.5455 159.838 16.1848C160.548 15.8242 161.332 15.6357 162.129 15.6347H249.036C249.818 15.6339 250.589 15.8147 251.289 16.1627C251.989 16.5108 252.598 17.0165 253.069 17.64C253.539 18.2635 253.858 18.9877 253.999 19.7553C254.141 20.5229 254.103 21.313 253.886 22.063C250.26 34.5792 242.794 67.7435 251.745 105.281C258.532 133.739 255.269 145.347 251.338 150.074C248.744 153.191 245.887 153.349 245.337 153.349Z" fill="#CCCCCC"/>
<path d="M236.086 120.917C227.133 83.3799 234.601 50.213 238.228 37.6994C238.444 36.9493 238.482 36.1593 238.34 35.3918C238.198 34.6244 237.879 33.9004 237.409 33.2769C236.939 32.6535 236.33 32.1476 235.631 31.7993C234.931 31.451 234.16 31.2697 233.378 31.2697H146.469C145.673 31.2705 144.889 31.4587 144.179 31.819C143.47 32.1793 142.856 32.7016 142.387 33.3433C138.879 38.1602 131.599 54.1334 139.73 98.3308C144.078 121.976 144.013 138.097 142.593 148.717C141.796 154.696 140.566 158.93 139.452 161.785L139.333 162.087C139.098 162.665 138.976 163.282 138.973 163.905C138.964 164.609 139.106 165.307 139.387 165.952C139.669 166.597 140.084 167.176 140.606 167.649C140.946 167.967 141.331 168.234 141.749 168.441C142.096 168.618 142.462 168.752 142.841 168.841C143.227 168.935 143.623 168.982 144.02 168.981H229.589C229.6 168.981 229.629 168.985 229.679 168.985C230.227 168.985 233.086 168.826 235.679 165.709C239.609 160.982 242.872 149.375 236.086 120.917ZM235.044 165.129C232.502 168.211 229.744 168.131 229.611 168.128H144.02C143.335 168.128 142.66 167.96 142.055 167.639C141.45 167.318 140.932 166.855 140.548 166.288C140.21 165.798 139.983 165.241 139.883 164.655C139.782 164.068 139.811 163.467 139.968 162.893C140.008 162.727 140.061 162.563 140.126 162.404C141.399 159.138 142.342 155.755 142.942 152.302C144.976 141.232 145.354 124.15 140.573 98.176C132.504 54.3062 139.64 38.5742 143.079 33.8473C143.469 33.3152 143.98 32.8822 144.568 32.5833C145.157 32.2844 145.808 32.1279 146.469 32.1265H233.378C234.027 32.1261 234.666 32.2761 235.247 32.5648C235.827 32.8534 236.332 33.2728 236.723 33.7899C237.113 34.3069 237.377 34.9075 237.495 35.5441C237.613 36.1807 237.581 36.8359 237.402 37.4582C233.757 50.0402 226.254 83.3799 235.253 121.115C241.945 149.177 238.834 160.539 235.044 165.129Z" fill="#3F3D56"/>
<path d="M194.798 72.1444H150.021C149.111 72.1444 148.238 71.7834 147.594 71.1407C146.951 70.4981 146.589 69.6265 146.589 68.7176C146.589 67.8088 146.951 66.9372 147.594 66.2945C148.238 65.6519 149.111 65.2908 150.021 65.2908H194.798C195.708 65.2908 196.581 65.6519 197.225 66.2945C197.869 66.9372 198.23 67.8088 198.23 68.7176C198.23 69.6265 197.869 70.4981 197.225 71.1407C196.581 71.7834 195.708 72.1444 194.798 72.1444Z" fill="#CCCCCC"/>
<path d="M194.798 86.9045H150.021C149.111 86.9045 148.238 86.5434 147.594 85.9008C146.951 85.2581 146.589 84.3865 146.589 83.4777C146.589 82.5688 146.951 81.6972 147.594 81.0546C148.238 80.4119 149.111 80.0509 150.021 80.0509H194.798C195.708 80.0509 196.581 80.4119 197.225 81.0546C197.869 81.6972 198.23 82.5688 198.23 83.4777C198.23 84.3865 197.869 85.2581 197.225 85.9008C196.581 86.5434 195.708 86.9045 194.798 86.9045Z" fill="#CCCCCC"/>
<path d="M198.404 102.025H153.627C152.717 102.025 151.844 101.663 151.2 101.021C150.556 100.378 150.195 99.5066 150.195 98.5977C150.195 97.6889 150.556 96.8173 151.2 96.1746C151.844 95.532 152.717 95.171 153.627 95.171H198.404C199.314 95.171 200.187 95.532 200.831 96.1746C201.474 96.8173 201.836 97.6889 201.836 98.5977C201.836 99.5066 201.474 100.378 200.831 101.021C200.187 101.663 199.314 102.025 198.404 102.025Z" fill="#CCCCCC"/>
<path d="M200.928 117.865H156.151C155.241 117.865 154.368 117.504 153.724 116.861C153.08 116.218 152.719 115.347 152.719 114.438C152.719 113.529 153.08 112.657 153.724 112.015C154.368 111.372 155.241 111.011 156.151 111.011H200.928C201.838 111.011 202.711 111.372 203.354 112.015C203.998 112.657 204.36 113.529 204.36 114.438C204.36 115.347 203.998 116.218 203.354 116.861C202.711 117.504 201.838 117.865 200.928 117.865Z" fill="#CCCCCC"/>
<path d="M200.947 45.5368H168.771C168.32 45.5373 167.873 45.449 167.456 45.277C167.039 45.105 166.66 44.8526 166.341 44.5344C166.022 44.2161 165.769 43.8382 165.596 43.4222C165.424 43.0062 165.335 42.5603 165.335 42.11C165.335 41.6597 165.424 41.2138 165.596 40.7978C165.769 40.3818 166.022 40.0039 166.341 39.6857C166.66 39.3674 167.039 39.1151 167.456 38.9431C167.873 38.7711 168.32 38.6828 168.771 38.6832H200.947C201.857 38.6832 202.73 39.0443 203.373 39.6869C204.017 40.3296 204.379 41.2012 204.379 42.11C204.379 43.0189 204.017 43.8905 203.373 44.5331C202.73 45.1758 201.857 45.5368 200.947 45.5368Z" fill="#FFA14E"/>
<path d="M218.682 119.118C221.271 119.118 223.369 117.022 223.369 114.438C223.369 111.853 221.271 109.758 218.682 109.758C216.093 109.758 213.995 111.853 213.995 114.438C213.995 117.022 216.093 119.118 218.682 119.118Z" fill="#CCCCCC"/>
<path d="M203.091 133.345H158.314C157.404 133.345 156.531 132.984 155.887 132.341C155.244 131.698 154.882 130.827 154.882 129.918C154.882 129.009 155.244 128.137 155.887 127.495C156.531 126.852 157.404 126.491 158.314 126.491H203.091C204.001 126.491 204.874 126.852 205.518 127.495C206.162 128.137 206.523 129.009 206.523 129.918C206.523 130.827 206.162 131.698 205.518 132.341C204.874 132.984 204.001 133.345 203.091 133.345Z" fill="#CCCCCC"/>
<path d="M220.845 134.598C223.434 134.598 225.533 132.503 225.533 129.918C225.533 127.333 223.434 125.238 220.845 125.238C218.257 125.238 216.158 127.333 216.158 129.918C216.158 132.503 218.257 134.598 220.845 134.598Z" fill="#CCCCCC"/>
</g>
<defs>
<clipPath id="clip0">
<rect width="306" height="169" fill="white"/>
</clipPath>
</defs>
</svg>
